<svg width="401" height="860" viewBox="0 0 401 860" fill="none" xmlns="http://www.w3.org/2000/svg">
<g filter="url(#filter0_d_88_2472)">
<g clip-path="url(#clip0_88_2472)">
<rect x="4" width="393" height="852" fill="#2F2C2B"/>
<path d="M64.4956 22.9453C66.9019 22.9453 68.9956 24.6562 68.9956 28.7188V28.7344C68.9956 32.5312 67.2847 34.7812 64.4487 34.7812C62.3784 34.7812 60.8316 33.5547 60.4722 31.8281L60.4566 31.7422H62.4409L62.4644 31.8203C62.7612 32.6094 63.4566 33.125 64.4487 33.125C66.2378 33.125 66.9956 31.375 67.0816 29.2188C67.0816 29.1328 67.0894 29.0469 67.0894 28.9609H66.9331C66.5191 29.8516 65.5347 30.6406 63.9878 30.6406C61.8237 30.6406 60.3081 29.0625 60.3081 26.9219V26.9062C60.3081 24.6172 62.0503 22.9453 64.4956 22.9453ZM64.4878 29.0938C65.7612 29.0938 66.7378 28.1719 66.7378 26.8984V26.8828C66.7378 25.5938 65.7612 24.5859 64.5112 24.5859C63.2691 24.5859 62.2769 25.5781 62.2769 26.8359V26.8516C62.2769 28.1562 63.2066 29.0938 64.4878 29.0938ZM72.2225 27.1953C71.5116 27.1953 70.9803 26.6484 70.9803 25.9609C70.9803 25.2656 71.5116 24.7266 72.2225 24.7266C72.9412 24.7266 73.4647 25.2656 73.4647 25.9609C73.4647 26.6484 72.9412 27.1953 72.2225 27.1953ZM72.2225 32.9922C71.5116 32.9922 70.9803 32.4531 70.9803 31.7578C70.9803 31.0625 71.5116 30.5234 72.2225 30.5234C72.9412 30.5234 73.4647 31.0625 73.4647 31.7578C73.4647 32.4531 72.9412 32.9922 72.2225 32.9922ZM80.9181 34.5V32.3359H75.4025V30.6875C76.8634 28.1484 78.465 25.5547 79.9963 23.2266H82.8478V30.6719H84.3634V32.3359H82.8478V34.5H80.9181ZM77.2775 30.7188H80.9494V24.8359H80.8322C79.6759 26.6016 78.3713 28.6875 77.2775 30.6016V30.7188ZM88.7153 34.5V25.2109H88.5825L85.7778 27.1953V25.2969L88.7231 23.2266H90.7309V34.5H88.7153Z" fill="white"/>
<rect x="138" y="11" width="125" height="37" rx="18.5" fill="black"/>
<rect x="138" y="11" width="80" height="37" rx="18.5" fill="black"/>
<rect x="226" y="11" width="37" height="37" rx="18.5" fill="black"/>
<path d="M295.299 26C295.299 25.4477 295.747 25 296.299 25H297.299C297.852 25 298.299 25.4477 298.299 26V34C298.299 34.5523 297.852 35 297.299 35H296.299C295.747 35 295.299 34.5523 295.299 34V26Z" fill="white"/>
<path d="M300.299 24C300.299 23.4477 300.747 23 301.299 23H302.299C302.852 23 303.299 23.4477 303.299 24V34C303.299 34.5523 302.852 35 302.299 35H301.299C300.747 35 300.299 34.5523 300.299 34V24Z" fill="white"/>
<path d="M290.299 29.5C290.299 28.9477 290.747 28.5 291.299 28.5H292.299C292.852 28.5 293.299 28.9477 293.299 29.5V34C293.299 34.5523 292.852 35 292.299 35H291.299C290.747 35 290.299 34.5523 290.299 34V29.5Z" fill="white"/>
<path d="M285.299 32C285.299 31.4477 285.747 31 286.299 31H287.299C287.852 31 288.299 31.4477 288.299 32V34C288.299 34.5523 287.852 35 287.299 35H286.299C285.747 35 285.299 34.5523 285.299 34V32Z" fill="white"/>
<path fill-rule="evenodd" clip-rule="evenodd" d="M319.8 25.5875C322.266 25.5876 324.639 26.5551 326.426 28.2898C326.561 28.4237 326.776 28.4221 326.909 28.286L328.195 26.9605C328.263 26.8915 328.3 26.798 328.299 26.7008C328.299 26.6035 328.26 26.5105 328.192 26.4423C323.501 21.8526 316.099 21.8526 311.407 26.4423C311.339 26.5105 311.3 26.6034 311.299 26.7007C311.299 26.7979 311.336 26.8914 311.403 26.9605L312.69 28.286C312.823 28.4223 313.038 28.424 313.173 28.2898C314.961 26.5549 317.333 25.5875 319.8 25.5875ZM319.835 29.5894C321.191 29.5893 322.497 30.1035 323.502 31.032C323.638 31.1638 323.852 31.1609 323.984 31.0255L325.27 29.7C325.337 29.6304 325.375 29.5361 325.374 29.4381C325.373 29.3401 325.333 29.2466 325.264 29.1784C322.205 26.2739 317.468 26.2739 314.409 29.1784C314.34 29.2466 314.3 29.3401 314.299 29.4382C314.299 29.5362 314.336 29.6305 314.404 29.7L315.689 31.0255C315.821 31.1609 316.035 31.1638 316.171 31.032C317.175 30.1041 318.481 29.5899 319.835 29.5894ZM322.449 32.1767C322.451 32.275 322.413 32.3698 322.344 32.4386L320.121 34.7289C320.056 34.7962 319.967 34.834 319.874 34.834C319.782 34.834 319.693 34.7962 319.628 34.7289L317.404 32.4386C317.335 32.3697 317.297 32.2749 317.3 32.1766C317.302 32.0783 317.343 31.9853 317.415 31.9194C318.835 30.6935 320.914 30.6935 322.334 31.9194C322.405 31.9853 322.447 32.0784 322.449 32.1767Z" fill="white"/>
<path opacity="0.35" d="M336.827 27C336.827 25.0822 338.382 23.5275 340.299 23.5275H357.299C359.217 23.5275 360.772 25.0822 360.772 27V32C360.772 33.9178 359.217 35.4725 357.299 35.4725H340.299C338.382 35.4725 336.827 33.9178 336.827 32V27Z" stroke="white" stroke-width="1.05509"/>
<path opacity="0.4" d="M362.299 28V32.2203C363.148 31.8629 363.701 31.0314 363.701 30.1102C363.701 29.1889 363.148 28.3574 362.299 28Z" fill="white"/>
<path d="M338.299 27C338.299 25.8954 339.195 25 340.299 25H357.299C358.404 25 359.299 25.8954 359.299 27V32C359.299 33.1046 358.404 34 357.299 34H340.299C339.195 34 338.299 33.1046 338.299 32V27Z" fill="white"/>
<rect x="146" y="839" width="134" height="5" rx="2.5" fill="white"/>
<path d="M387.875 229.255C390.721 229.469 392.306 231.199 392.345 234.262L392.721 263.853C392.76 266.946 391.22 268.716 388.379 268.971L387.875 229.255ZM378.483 223.093C381.551 223.46 383.352 225.031 383.396 228.5L383.921 269.871C383.965 273.309 382.204 274.925 379.148 275.401L378.483 223.093ZM320.386 223.206C320.335 219.206 322.896 216.611 326.802 216.561L366.768 216.054C370.674 216.004 373.3 218.533 373.351 222.533L374.031 276.091C374.082 280.091 371.521 282.686 367.615 282.736L327.649 283.243C323.743 283.293 321.117 280.764 321.066 276.764L320.386 223.206ZM362.382 222.641L362.423 225.828C362.432 226.578 362.97 227.072 363.657 227.063L366.438 227.028C367.22 227.018 367.745 226.511 367.735 225.761L367.695 222.636C367.685 221.824 367.116 221.3 366.303 221.31L363.585 221.345C362.897 221.353 362.373 221.86 362.382 222.641ZM349.861 233.332L350.273 265.798C350.284 266.642 350.854 267.26 351.761 267.248L366.791 267.058C367.666 267.046 368.251 266.414 368.241 265.57L367.828 233.104C367.817 232.229 367.216 231.643 366.341 231.654L351.311 231.845C350.405 231.857 349.85 232.457 349.861 233.332ZM363.022 272.981L363.062 276.137C363.072 276.918 363.61 277.443 364.297 277.434L367.016 277.399C367.828 277.389 368.384 276.851 368.373 276.007L368.334 272.913C368.325 272.195 367.787 271.67 367.006 271.68L364.225 271.716C363.537 271.724 363.013 272.262 363.022 272.981ZM353.258 222.757L353.299 225.944C353.308 226.694 353.908 227.187 354.564 227.178L357.345 227.143C358.064 227.134 358.62 226.627 358.611 225.877L358.57 222.69C358.56 221.908 357.992 221.416 357.273 221.425L354.492 221.46C353.836 221.468 353.248 221.976 353.258 222.757ZM353.897 273.097L353.938 276.253C353.947 277.034 354.548 277.558 355.204 277.549L357.985 277.514C358.704 277.505 359.26 276.998 359.25 276.185L359.21 273.029C359.2 272.311 358.631 271.787 357.913 271.796L355.132 271.831C354.475 271.839 353.888 272.378 353.897 273.097ZM344.228 222.872L344.268 226.059C344.278 226.809 344.846 227.302 345.565 227.293L348.252 227.259C349.065 227.248 349.59 226.741 349.58 225.992L349.54 222.804C349.53 222.023 348.992 221.53 348.18 221.54L345.493 221.574C344.774 221.583 344.218 222.091 344.228 222.872ZM344.867 273.211L344.907 276.367C344.917 277.149 345.486 277.673 346.205 277.664L348.892 277.629C349.705 277.619 350.229 277.112 350.219 276.3L350.179 273.144C350.17 272.425 349.632 271.901 348.82 271.911L346.132 271.945C345.414 271.954 344.858 272.493 344.867 273.211ZM326.207 233.633L326.619 266.099C326.63 266.943 327.231 267.56 328.137 267.548L343.074 267.359C343.98 267.347 344.534 266.715 344.524 265.871L344.111 233.405C344.1 232.53 343.53 231.944 342.624 231.955L327.688 232.145C326.782 232.157 326.195 232.758 326.207 233.633ZM335.166 222.987L335.206 226.174C335.216 226.924 335.816 227.416 336.472 227.408L339.222 227.373C339.972 227.364 340.497 226.857 340.487 226.107L340.447 222.92C340.437 222.139 339.899 221.645 339.149 221.655L336.4 221.69C335.743 221.698 335.156 222.206 335.166 222.987ZM335.805 273.327L335.845 276.483C335.855 277.264 336.456 277.787 337.112 277.779L339.862 277.744C340.612 277.735 341.136 277.228 341.126 276.415L341.086 273.259C341.077 272.541 340.539 272.016 339.789 272.026L337.039 272.061C336.383 272.069 335.796 272.608 335.805 273.327ZM326.074 223.165L326.113 226.29C326.123 227.04 326.66 227.533 327.41 227.523L330.16 227.488C330.941 227.478 331.435 226.972 331.425 226.222L331.385 223.035C331.375 222.254 330.869 221.76 330.088 221.77L327.4 221.804C326.619 221.814 326.063 222.352 326.074 223.165ZM326.712 273.442L326.751 276.536C326.762 277.379 327.331 277.903 328.113 277.893L330.8 277.859C331.581 277.849 332.074 277.312 332.064 276.531L332.024 273.375C332.015 272.656 331.508 272.131 330.727 272.141L327.977 272.176C327.228 272.185 326.703 272.723 326.712 273.442Z" fill="#1975D1"/>
<path d="M396.129 507.738L351.232 525.359C348.276 526.526 345.757 525.832 344.138 523.567L340.38 525.025C339.21 525.449 337.928 524.941 337.441 523.762C336.986 522.587 337.556 521.314 338.766 520.832L342.263 519.43L340.71 515.467L337.182 516.865C335.976 517.316 334.729 516.781 334.278 515.576C333.77 514.33 334.27 513.11 335.546 512.606L339.273 511.144C338.926 508.406 340.334 506.184 343.291 505.016L356.596 499.746L334.376 496.409C332.12 496.07 330.322 494.789 329.337 492.303L325.93 483.638C324.458 479.972 325.739 476.91 329.396 475.5L374.292 457.879C377.248 456.712 379.772 457.375 381.386 459.671L385.144 458.214C386.314 457.789 387.596 458.297 388.083 459.477C388.538 460.651 387.968 461.924 386.758 462.406L383.261 463.808L384.815 467.771L388.343 466.373C389.548 465.922 390.795 466.457 391.246 467.662C391.785 468.912 391.255 470.128 389.978 470.632L386.251 472.094C386.598 474.833 385.19 477.054 382.234 478.222L368.964 483.465L391.06 486.784C393.347 487.128 395.145 488.409 396.188 490.936L399.595 499.6C401.04 503.23 399.785 506.328 396.129 507.738ZM393.713 503.204C394.688 502.813 395.039 501.95 394.622 500.939L391.658 493.32C391.241 492.31 390.413 491.933 389.438 492.323L345.68 509.515C344.674 509.901 344.328 510.734 344.719 511.709L347.771 519.372C348.152 520.409 348.949 520.782 349.924 520.391L393.713 503.204ZM355.221 512.054C355.72 513.361 355.096 514.784 353.779 515.345C352.503 515.848 351.084 515.193 350.55 513.912C350.051 512.604 350.676 511.181 351.992 510.621C353.264 510.148 354.718 510.777 355.221 512.054ZM363.585 508.759C364.115 510.071 363.526 511.468 362.214 511.998C360.906 512.497 359.448 511.899 358.984 510.565C358.383 509.305 359.074 507.861 360.386 507.331C361.689 506.863 363.112 507.488 363.585 508.759ZM372.05 505.417C372.544 506.756 371.889 508.174 370.577 508.704C369.362 509.216 367.877 508.583 367.348 507.271C366.844 505.994 367.5 504.576 368.785 504.01C370.057 503.538 371.542 504.172 372.05 505.417ZM380.444 502.128C380.974 503.44 380.278 504.915 379.033 505.423C377.695 505.917 376.241 505.288 375.808 503.959C375.238 502.704 375.868 501.251 377.18 500.721C378.451 500.248 379.91 500.846 380.444 502.128ZM388.839 498.838C389.337 500.145 388.739 501.604 387.401 502.098C386.124 502.602 384.701 501.977 384.172 500.665C383.668 499.389 384.297 497.935 385.578 497.4C386.912 496.937 388.34 497.531 388.839 498.838ZM380.445 490.341L359.462 487.189L345.115 492.871L366.098 496.023L380.445 490.341ZM379.844 473.723C380.819 473.333 381.196 472.504 380.806 471.529L377.754 463.866C377.372 462.829 376.575 462.457 375.6 462.847L331.811 480.034C330.836 480.425 330.516 481.293 330.902 482.299L333.866 489.918C334.283 490.928 335.111 491.305 336.086 490.915L379.844 473.723ZM341.353 482.573C341.825 483.845 341.227 485.303 339.946 485.838C338.612 486.301 337.185 485.708 336.686 484.4C336.182 483.124 336.785 481.634 338.093 481.135C339.4 480.637 340.823 481.261 341.353 482.573ZM349.716 479.279C350.286 480.534 349.657 481.988 348.345 482.517C347.073 482.99 345.583 482.387 345.08 481.111C344.55 479.799 345.215 478.318 346.487 477.846C347.83 477.321 349.284 477.95 349.716 479.279ZM358.177 475.967C358.68 477.244 358.056 478.667 356.739 479.228C355.467 479.7 353.978 479.097 353.474 477.821C352.949 476.478 353.635 475.064 354.947 474.534C356.162 474.022 357.647 474.655 358.177 475.967ZM366.571 472.678C367.141 473.933 366.481 475.382 365.138 475.907C363.835 476.375 362.412 475.75 361.94 474.479C361.41 473.167 361.999 471.77 363.311 471.24C364.623 470.71 366.077 471.34 366.571 472.678ZM374.974 469.326C375.473 470.634 374.849 472.057 373.532 472.617C372.26 473.09 370.806 472.461 370.303 471.184C369.804 469.877 370.429 468.454 371.745 467.893C373.022 467.39 374.471 468.05 374.974 469.326Z" fill="#0A84FF"/>
<path d="M-0.9375 649.312C-12 649.312 -17.8125 643.438 -17.8125 632.562V566.625C-17.8125 555.688 -12 549.812 -0.9375 549.812H16.3125C21.4375 549.812 22.9375 549.375 26.0625 545.812L31.5625 539.688C34.875 536 37.375 534.938 43.375 534.938H67C72.9375 534.938 75.4375 536 78.8125 539.688L84.25 545.812C87.5625 549.5 88.8125 549.812 94 549.812H112.875C123.938 549.812 129.75 555.688 129.75 566.625V632.562C129.75 643.438 123.938 649.312 112.875 649.312H-0.9375ZM-0.8125 644.688H112.75C120.625 644.688 125.125 640.438 125.125 632.312V566.875C125.125 558.688 120.625 554.438 112.75 554.438H93.5C87.75 554.438 85.1875 553.875 81.8125 550.062L76.375 544C72.875 540.125 71 539.562 66.3125 539.562H44C39.3125 539.562 37.5 540.125 33.9375 544L28.5 550.062C25.1875 553.875 22.5625 554.438 16.875 554.438H-0.8125C-8.625 554.438 -13.1875 558.688 -13.1875 566.875V632.312C-13.1875 640.438 -8.625 644.688 -0.8125 644.688ZM56 633.312C36.8125 633.312 21.3125 617.875 21.3125 598.562C21.3125 579.25 36.8125 563.875 56 563.875C75.25 563.875 90.625 579.25 90.625 598.562C90.625 617.875 75.125 633.312 56 633.312ZM56 628.562C72.5 628.562 85.875 615.188 85.875 598.562C85.875 581.938 72.5 568.562 56 568.562C39.4375 568.562 26.125 581.938 26.125 598.562C26.125 615.188 39.4375 628.562 56 628.562ZM94.1875 575.875C94.1875 572.125 97.5625 568.75 101.5 568.75C105.312 568.75 108.625 572.125 108.625 575.875C108.625 579.812 105.312 583.062 101.5 583.062C97.5625 583.062 94.1875 580.062 94.1875 575.875Z" fill="#0A84FF"/>
</g>
<rect x="4.5" y="0.5" width="392" height="851" stroke="black"/>
</g>
<defs>
<filter id="filter0_d_88_2472" x="0" y="0" width="401" height="860" filterUnits="userSpaceOnUse" color-interpolation-filters="sRGB">
<feFlood flood-opacity="0" result="BackgroundImageFix"/>
<feColorMatrix in="SourceAlpha" type="matrix" values="0 0 0 0 0 0 0 0 0 0 0 0 0 0 0 0 0 0 127 0" result="hardAlpha"/>
<feOffset dy="4"/>
<feGaussianBlur stdDeviation="2"/>
<feComposite in2="hardAlpha" operator="out"/>
<feColorMatrix type="matrix" values="0 0 0 0 0 0 0 0 0 0 0 0 0 0 0 0 0 0 0.25 0"/>
<feBlend mode="normal" in2="BackgroundImageFix" result="effect1_dropShadow_88_2472"/>
<feBlend mode="normal" in="SourceGraphic" in2="effect1_dropShadow_88_2472" result="shape"/>
</filter>
<clipPath id="clip0_88_2472">
<rect x="4" width="393" height="852" fill="white"/>
</clipPath>
</defs>
</svg>
